M48
;Layer_Color=9474304
;FILE_FORMAT=4:4
METRIC,LZ
;TYPE=PLATED
T1F00S00C0.3300
T2F00S00C0.5000
T3F00S00C0.9000
T4F00S00C1.0000
%
T01
X00886416Y00571364
Y00583364
X00898416
Y00571364
X00910416
Y00583364
X00922416
Y00571364
Y00595364
X00910416
X00898416
X00886416
Y00607364
X00898416
X00910416
X00922416
T02
X00804Y00498
X00824998Y00507999
X00848Y00505
X0084Y0055
X00849Y0057
X0085Y00606
X00818Y00582
X00798Y00572
X00877Y00536
X00895
X00915
X00933Y00537
X00969478Y00553892
X01008848Y0056329
X01025866Y00566846
Y00553638
Y00539922
Y00525698
X01010372Y0052519
X01005Y005075
X01025
X0099Y00502
X01025866Y00580308
X01006562Y00605708
X01016976Y00626282
X0102612Y00635934
X00957794Y00616884
Y0060393
X00924774Y00636696
X0078Y00633
X00763
X00749Y00599
X007175Y0059
Y005425
X00736Y00518
X007855Y005105
X00775Y00576
T03
X007205Y00506
Y00633
T04
X008788Y00509
X009042
X009296
X00955
M30
