G04 Layer_Color=8388736*
%FSLAX44Y44*%
%MOMM*%
G71*
G01*
G75*
G04:AMPARAMS|DCode=44|XSize=0.58mm|YSize=0.68mm|CornerRadius=0.09mm|HoleSize=0mm|Usage=FLASHONLY|Rotation=0.000|XOffset=0mm|YOffset=0mm|HoleType=Round|Shape=RoundedRectangle|*
%AMROUNDEDRECTD44*
21,1,0.5800,0.5000,0,0,0.0*
21,1,0.4000,0.6800,0,0,0.0*
1,1,0.1800,0.2000,-0.2500*
1,1,0.1800,-0.2000,-0.2500*
1,1,0.1800,-0.2000,0.2500*
1,1,0.1800,0.2000,0.2500*
%
%ADD44ROUNDEDRECTD44*%
G04:AMPARAMS|DCode=45|XSize=0.58mm|YSize=0.68mm|CornerRadius=0.09mm|HoleSize=0mm|Usage=FLASHONLY|Rotation=270.000|XOffset=0mm|YOffset=0mm|HoleType=Round|Shape=RoundedRectangle|*
%AMROUNDEDRECTD45*
21,1,0.5800,0.5000,0,0,270.0*
21,1,0.4000,0.6800,0,0,270.0*
1,1,0.1800,-0.2500,-0.2000*
1,1,0.1800,-0.2500,0.2000*
1,1,0.1800,0.2500,0.2000*
1,1,0.1800,0.2500,-0.2000*
%
%ADD45ROUNDEDRECTD45*%
%ADD46R,0.5800X0.6800*%
G04:AMPARAMS|DCode=47|XSize=0.68mm|YSize=0.68mm|CornerRadius=0.1mm|HoleSize=0mm|Usage=FLASHONLY|Rotation=270.000|XOffset=0mm|YOffset=0mm|HoleType=Round|Shape=RoundedRectangle|*
%AMROUNDEDRECTD47*
21,1,0.6800,0.4800,0,0,270.0*
21,1,0.4800,0.6800,0,0,270.0*
1,1,0.2000,-0.2400,-0.2400*
1,1,0.2000,-0.2400,0.2400*
1,1,0.2000,0.2400,0.2400*
1,1,0.2000,0.2400,-0.2400*
%
%ADD47ROUNDEDRECTD47*%
G04:AMPARAMS|DCode=48|XSize=0.68mm|YSize=0.68mm|CornerRadius=0.1mm|HoleSize=0mm|Usage=FLASHONLY|Rotation=180.000|XOffset=0mm|YOffset=0mm|HoleType=Round|Shape=RoundedRectangle|*
%AMROUNDEDRECTD48*
21,1,0.6800,0.4800,0,0,180.0*
21,1,0.4800,0.6800,0,0,180.0*
1,1,0.2000,-0.2400,0.2400*
1,1,0.2000,0.2400,0.2400*
1,1,0.2000,0.2400,-0.2400*
1,1,0.2000,-0.2400,-0.2400*
%
%ADD48ROUNDEDRECTD48*%
%ADD49R,0.9800X1.5300*%
%ADD50R,1.4800X2.5800*%
%ADD51O,1.2800X0.4800*%
%ADD52R,1.2800X0.4800*%
%ADD53R,0.6800X0.5800*%
%ADD54O,0.7300X0.2800*%
%ADD55O,0.2800X0.7300*%
%ADD56R,4.7800X4.7800*%
%ADD57R,1.3800X1.5800*%
%ADD58R,1.5800X0.6800*%
%ADD59R,1.8800X1.0800*%
%ADD60C,1.8300*%
%ADD61C,2.0800*%
%ADD62C,0.7400*%
D44*
X992084Y556258D02*
D03*
Y566258D02*
D03*
X980400Y556258D02*
D03*
Y566258D02*
D03*
X1005292Y627726D02*
D03*
Y617726D02*
D03*
X860512Y624678D02*
D03*
Y614678D02*
D03*
X945602Y603248D02*
D03*
Y613248D02*
D03*
X946872Y555496D02*
D03*
Y565496D02*
D03*
X860258Y556004D02*
D03*
Y566004D02*
D03*
X833000Y597000D02*
D03*
Y607000D02*
D03*
Y633000D02*
D03*
Y623000D02*
D03*
X958756Y555446D02*
D03*
Y565446D02*
D03*
D45*
X944920Y636696D02*
D03*
X954920D02*
D03*
X912006Y632494D02*
D03*
X902006D02*
D03*
X980828Y587420D02*
D03*
X970828D02*
D03*
X758000Y540000D02*
D03*
X768000D02*
D03*
D46*
X960506Y576946D02*
D03*
Y586946D02*
D03*
X969506Y565946D02*
D03*
Y575946D02*
D03*
D47*
X851000Y525000D02*
D03*
X841000D02*
D03*
D48*
X767000Y514000D02*
D03*
Y524000D02*
D03*
X788000Y588000D02*
D03*
Y598000D02*
D03*
D49*
X773000Y616000D02*
D03*
X753000D02*
D03*
D50*
X803000Y536000D02*
D03*
D51*
X820750Y526250D02*
D03*
D52*
Y536250D02*
D03*
X821000Y546250D02*
D03*
X785500Y526250D02*
D03*
Y536250D02*
D03*
Y546250D02*
D03*
D53*
X990480Y576752D02*
D03*
X980480D02*
D03*
D54*
X874166Y567364D02*
D03*
Y571364D02*
D03*
Y599364D02*
D03*
Y607364D02*
D03*
Y603364D02*
D03*
Y611364D02*
D03*
X934666Y571364D02*
D03*
Y567364D02*
D03*
Y575364D02*
D03*
Y579364D02*
D03*
Y583364D02*
D03*
Y591364D02*
D03*
Y587364D02*
D03*
Y599364D02*
D03*
Y595364D02*
D03*
Y607364D02*
D03*
Y603364D02*
D03*
Y611364D02*
D03*
X874166Y595364D02*
D03*
Y583364D02*
D03*
Y579364D02*
D03*
Y575364D02*
D03*
Y587364D02*
D03*
Y591364D02*
D03*
D55*
X886416Y559114D02*
D03*
X882416D02*
D03*
X898416D02*
D03*
X890416D02*
D03*
X894416D02*
D03*
X882416Y619614D02*
D03*
X894416D02*
D03*
X886416D02*
D03*
X890416D02*
D03*
X906416Y559114D02*
D03*
X902416D02*
D03*
X922416D02*
D03*
X910416D02*
D03*
X914416D02*
D03*
X918416D02*
D03*
X926416D02*
D03*
X906416Y619614D02*
D03*
X910416D02*
D03*
X898416D02*
D03*
X902416D02*
D03*
X922416D02*
D03*
X914416D02*
D03*
X918416D02*
D03*
X926416D02*
D03*
D56*
X904416Y589364D02*
D03*
D57*
X991170Y632148D02*
D03*
Y609148D02*
D03*
X973169Y632148D02*
D03*
Y609148D02*
D03*
D58*
X750500Y561500D02*
D03*
Y580500D02*
D03*
X727500Y571000D02*
D03*
D59*
X812000Y606500D02*
D03*
Y631500D02*
D03*
D60*
X904200Y509000D02*
D03*
X878800D02*
D03*
X929600D02*
D03*
X955000D02*
D03*
D61*
X720500Y633000D02*
D03*
Y506000D02*
D03*
D62*
X886416Y583364D02*
D03*
Y571364D02*
D03*
X898416Y583364D02*
D03*
Y571364D02*
D03*
X886416Y595364D02*
D03*
X898416D02*
D03*
X886416Y607364D02*
D03*
X898416D02*
D03*
X910416Y571364D02*
D03*
Y583364D02*
D03*
X922416Y571364D02*
D03*
Y583364D02*
D03*
X910416Y595364D02*
D03*
Y607364D02*
D03*
X922416D02*
D03*
Y595364D02*
D03*
M02*
