G04 Layer_Color=65535*
%FSLAX44Y44*%
%MOMM*%
G71*
G01*
G75*
%ADD26C,0.2032*%
%ADD27C,0.2540*%
%ADD32C,0.2000*%
%ADD38C,0.2500*%
%ADD39C,0.1500*%
%ADD40C,0.1270*%
%ADD41C,0.1520*%
%ADD42C,0.1524*%
%ADD43C,0.1400*%
D26*
X959006Y592946D02*
X962006D01*
X968006Y581946D02*
X971006D01*
X974480Y575252D02*
Y578252D01*
X874416Y559364D02*
X879416D01*
X874416D02*
Y564364D01*
Y614364D02*
X879416Y619364D01*
X929415Y559364D02*
X934416D01*
Y564364D01*
X929415Y619364D02*
X934416D01*
Y614364D02*
Y619364D01*
D27*
X824000Y519500D02*
G03*
X824000Y519500I-1250J0D01*
G01*
X802000Y615000D02*
Y623000D01*
X822000Y615000D02*
Y623000D01*
D32*
X760460Y612190D02*
Y619810D01*
Y616000D02*
X765540Y612190D01*
X760460Y616000D02*
X765540Y619810D01*
Y612190D02*
Y619810D01*
X761500Y609750D02*
X764500D01*
X761500Y622250D02*
X764500D01*
X866100Y521700D02*
X967700D01*
X866100Y496300D02*
Y521700D01*
X967700Y496300D02*
Y521700D01*
X866100Y496300D02*
X967700D01*
X730500Y555500D02*
X739500D01*
X730500D02*
Y564000D01*
Y586500D02*
X739500D01*
X730500Y578000D02*
Y586500D01*
D38*
X866666Y611364D02*
G03*
X866666Y611364I-1250J0D01*
G01*
X751750Y553000D02*
G03*
X751750Y553000I-1250J0D01*
G01*
D39*
X953476Y595548D02*
X955254Y593770D01*
X953476Y595548D02*
Y596056D01*
Y596564D02*
X955254Y598342D01*
X953476Y596056D02*
Y596564D01*
X999704Y576752D02*
X1001609D01*
X997164D02*
X999450Y574466D01*
X997164Y576752D02*
X999704D01*
X953476Y596056D02*
X988528D01*
X1001609Y554273D02*
Y576752D01*
X997164D02*
X1000212Y579800D01*
X818250Y520000D02*
Y521500D01*
X818750Y551250D02*
Y552500D01*
X786750Y551250D02*
Y552500D01*
Y520000D02*
Y521500D01*
Y552500D02*
X818500D01*
X786750Y520000D02*
X818250D01*
D40*
X987084Y550758D02*
X997084D01*
X987084D02*
Y558758D01*
Y563758D02*
Y571758D01*
X997084D01*
Y563758D02*
Y571758D01*
Y550758D02*
Y558758D01*
X975400Y550758D02*
X985400D01*
X975400D02*
Y558758D01*
Y563758D02*
Y571758D01*
X985400D01*
Y563758D02*
Y571758D01*
Y550758D02*
Y558758D01*
X1000292Y633226D02*
X1010292D01*
Y625226D02*
Y633226D01*
Y612226D02*
Y620226D01*
X1000292Y612226D02*
X1010292D01*
X1000292D02*
Y620226D01*
Y625226D02*
Y633226D01*
X939420Y631696D02*
Y641696D01*
X947420D01*
X952420D02*
X960420D01*
Y631696D02*
Y641696D01*
X952420Y631696D02*
X960420D01*
X939420D02*
X947420D01*
X917506Y627494D02*
Y637494D01*
X909506Y627494D02*
X917506D01*
X896506D02*
X904506D01*
X896506D02*
Y637494D01*
X904506D01*
X909506D02*
X917506D01*
X855512Y630178D02*
X865512D01*
Y622178D02*
Y630178D01*
Y609178D02*
Y617178D01*
X855512Y609178D02*
X865512D01*
X855512D02*
Y617178D01*
Y622178D02*
Y630178D01*
X940602Y597748D02*
X950602D01*
X940602D02*
Y605748D01*
Y610748D02*
Y618748D01*
X950602D01*
Y610748D02*
Y618748D01*
Y597748D02*
Y605748D01*
X986328Y582420D02*
Y592420D01*
X978328Y582420D02*
X986328D01*
X965328D02*
X973328D01*
X965328D02*
Y592420D01*
X973328D01*
X978328D02*
X986328D01*
X941872Y549996D02*
X951872D01*
X941872D02*
Y557996D01*
Y562996D02*
Y570996D01*
X951872D01*
Y562996D02*
Y570996D01*
Y549996D02*
Y557996D01*
X855258Y550504D02*
X865258D01*
X855258D02*
Y558504D01*
Y563504D02*
Y571504D01*
X865258D01*
Y563504D02*
Y571504D01*
Y550504D02*
Y558504D01*
X835500Y519500D02*
X843500D01*
X848500D02*
X856500D01*
Y530500D01*
X848500D02*
X856500D01*
X835500D02*
X843500D01*
X835500Y519500D02*
Y530500D01*
X761500Y521500D02*
Y529500D01*
Y508500D02*
Y516500D01*
Y508500D02*
X772500D01*
Y516500D01*
Y521500D02*
Y529500D01*
X761500D02*
X772500D01*
X752500Y535000D02*
Y545000D01*
X760500D01*
X765500D02*
X773500D01*
Y535000D02*
Y545000D01*
X765500Y535000D02*
X773500D01*
X752500D02*
X760500D01*
X828000Y591500D02*
X838000D01*
X828000D02*
Y599500D01*
Y604500D02*
Y612500D01*
X838000D01*
Y604500D02*
Y612500D01*
Y591500D02*
Y599500D01*
X828000Y638500D02*
X838000D01*
Y630500D02*
Y638500D01*
Y617500D02*
Y625500D01*
X828000Y617500D02*
X838000D01*
X828000D02*
Y625500D01*
Y630500D02*
Y638500D01*
X782500Y582500D02*
X793500D01*
X782500D02*
Y590500D01*
Y595500D02*
Y603500D01*
X793500D01*
Y595500D02*
Y603500D01*
Y582500D02*
Y590500D01*
X953756Y549946D02*
X963756D01*
X953756D02*
Y557946D01*
Y562946D02*
Y570946D01*
X963756D01*
Y562946D02*
Y570946D01*
Y549946D02*
Y557946D01*
D41*
X791003Y623000D02*
X799000Y628332D01*
X791003D02*
X799000Y623000D01*
Y636329D02*
Y630997D01*
X793668Y636329D01*
X792336D01*
X791003Y634996D01*
Y632330D01*
X792336Y630997D01*
X847332Y643664D02*
X845999Y644997D01*
X843333D01*
X842000Y643664D01*
Y638333D01*
X843333Y637000D01*
X845999D01*
X847332Y638333D01*
X849997Y637000D02*
X852663D01*
X851330D01*
Y644997D01*
X849997Y643664D01*
X856662Y644997D02*
X861994D01*
Y643664D01*
X856662Y638333D01*
Y637000D01*
X846332Y594664D02*
X844999Y595997D01*
X842333D01*
X841000Y594664D01*
Y589333D01*
X842333Y588000D01*
X844999D01*
X846332Y589333D01*
X848997Y588000D02*
X851663D01*
X850330D01*
Y595997D01*
X848997Y594664D01*
X860994Y595997D02*
X858328Y594664D01*
X855662Y591999D01*
Y589333D01*
X856995Y588000D01*
X859661D01*
X860994Y589333D01*
Y590666D01*
X859661Y591999D01*
X855662D01*
X731000Y549997D02*
Y543333D01*
X732333Y542000D01*
X734999D01*
X736332Y543333D01*
Y549997D01*
X738997D02*
X744329D01*
Y548665D01*
X738997Y543333D01*
Y542000D01*
X741332Y534664D02*
X739999Y535997D01*
X737333D01*
X736000Y534664D01*
Y529333D01*
X737333Y528000D01*
X739999D01*
X741332Y529333D01*
X743997Y535997D02*
X749329D01*
Y534664D01*
X743997Y529333D01*
Y528000D01*
X972000Y516997D02*
Y509000D01*
Y511666D01*
X977332Y516997D01*
X973333Y512999D01*
X977332Y509000D01*
X979997D02*
X982663D01*
X981330D01*
Y516997D01*
X979997Y515664D01*
X735003Y606000D02*
X743000D01*
Y611332D01*
X735003Y619329D02*
Y613997D01*
X743000D01*
Y619329D01*
X739001Y613997D02*
Y616663D01*
X735003Y621995D02*
X743000D01*
Y625994D01*
X741667Y627327D01*
X736336D01*
X735003Y625994D01*
Y621995D01*
X743000Y629992D02*
Y632658D01*
Y631325D01*
X735003D01*
X736336Y629992D01*
X771000Y597000D02*
X778997D01*
Y593001D01*
X777664Y591668D01*
X774999D01*
X773666Y593001D01*
Y597000D01*
Y594334D02*
X771000Y591668D01*
X778997Y583671D02*
Y589003D01*
X774999D01*
X776332Y586337D01*
Y585004D01*
X774999Y583671D01*
X772333D01*
X771000Y585004D01*
Y587670D01*
X772333Y589003D01*
D42*
X759000Y496000D02*
Y503997D01*
X762999D01*
X764332Y502664D01*
Y499999D01*
X762999Y498666D01*
X759000D01*
X761666D02*
X764332Y496000D01*
X770996D02*
Y503997D01*
X766997Y499999D01*
X772329D01*
X860000Y522000D02*
Y529997D01*
X863999D01*
X865332Y528665D01*
Y525999D01*
X863999Y524666D01*
X860000D01*
X862666D02*
X865332Y522000D01*
X867997Y528665D02*
X869330Y529997D01*
X871996D01*
X873329Y528665D01*
Y527332D01*
X871996Y525999D01*
X870663D01*
X871996D01*
X873329Y524666D01*
Y523333D01*
X871996Y522000D01*
X869330D01*
X867997Y523333D01*
X854332Y546665D02*
X852999Y547997D01*
X850333D01*
X849000Y546665D01*
Y541333D01*
X850333Y540000D01*
X852999D01*
X854332Y541333D01*
X856997Y546665D02*
X858330Y547997D01*
X860996D01*
X862329Y546665D01*
Y545332D01*
X860996Y543999D01*
X862329Y542666D01*
Y541333D01*
X860996Y540000D01*
X858330D01*
X856997Y541333D01*
Y542666D01*
X858330Y543999D01*
X856997Y545332D01*
Y546665D01*
X858330Y543999D02*
X860996D01*
X1000974Y643423D02*
X1006306Y635426D01*
Y643423D02*
X1000974Y635426D01*
X1008971D02*
X1011637D01*
X1010304D01*
Y643423D01*
X1008971Y642091D01*
X966053Y533064D02*
X974050D01*
Y538396D01*
X967385Y541061D02*
X966053Y542394D01*
Y545060D01*
X967385Y546393D01*
X968718D01*
X970051Y545060D01*
Y543727D01*
Y545060D01*
X971384Y546393D01*
X972717D01*
X974050Y545060D01*
Y542394D01*
X972717Y541061D01*
X943955Y577514D02*
X951952D01*
Y582846D01*
Y590843D02*
Y585511D01*
X946620Y590843D01*
X945287D01*
X943955Y589510D01*
Y586844D01*
X945287Y585511D01*
X943255Y531538D02*
X941923Y530205D01*
Y527539D01*
X943255Y526206D01*
X948587D01*
X949920Y527539D01*
Y530205D01*
X948587Y531538D01*
X949920Y534203D02*
Y536869D01*
Y535536D01*
X941923D01*
X943255Y534203D01*
Y540868D02*
X941923Y542201D01*
Y544867D01*
X943255Y546200D01*
X944588D01*
X945921Y544867D01*
Y543534D01*
Y544867D01*
X947254Y546200D01*
X948587D01*
X949920Y544867D01*
Y542201D01*
X948587Y540868D01*
X997924Y587734D02*
X996591Y589067D01*
X993925D01*
X992592Y587734D01*
Y582403D01*
X993925Y581070D01*
X996591D01*
X997924Y582403D01*
X1000589Y581070D02*
X1003255D01*
X1001922D01*
Y589067D01*
X1000589Y587734D01*
X1007254D02*
X1008587Y589067D01*
X1011253D01*
X1012586Y587734D01*
Y582403D01*
X1011253Y581070D01*
X1008587D01*
X1007254Y582403D01*
Y587734D01*
X995638Y597640D02*
X994305Y598973D01*
X991639D01*
X990306Y597640D01*
Y592309D01*
X991639Y590976D01*
X994305D01*
X995638Y592309D01*
X998303D02*
X999636Y590976D01*
X1002302D01*
X1003635Y592309D01*
Y597640D01*
X1002302Y598973D01*
X999636D01*
X998303Y597640D01*
Y596308D01*
X999636Y594975D01*
X1003635D01*
X869088Y625518D02*
X867755Y624185D01*
Y621519D01*
X869088Y620186D01*
X874419D01*
X875752Y621519D01*
Y624185D01*
X874419Y625518D01*
X867755Y633515D02*
X869088Y630849D01*
X871753Y628183D01*
X874419D01*
X875752Y629516D01*
Y632182D01*
X874419Y633515D01*
X873086D01*
X871753Y632182D01*
Y628183D01*
X884386Y634978D02*
X883053Y636311D01*
X880387D01*
X879054Y634978D01*
Y629647D01*
X880387Y628314D01*
X883053D01*
X884386Y629647D01*
X887051Y634978D02*
X888384Y636311D01*
X891050D01*
X892383Y634978D01*
Y633646D01*
X891050Y632313D01*
X889717D01*
X891050D01*
X892383Y630980D01*
Y629647D01*
X891050Y628314D01*
X888384D01*
X887051Y629647D01*
X943822Y628374D02*
X942489Y629707D01*
X939823D01*
X938490Y628374D01*
Y623043D01*
X939823Y621710D01*
X942489D01*
X943822Y623043D01*
X951819Y621710D02*
X946487D01*
X951819Y627042D01*
Y628374D01*
X950486Y629707D01*
X947820D01*
X946487Y628374D01*
X1017336Y612332D02*
X1016003Y610999D01*
Y608333D01*
X1017336Y607000D01*
X1022667D01*
X1024000Y608333D01*
Y610999D01*
X1022667Y612332D01*
X1024000Y614997D02*
Y617663D01*
Y616330D01*
X1016003D01*
X1017336Y614997D01*
X871000Y551997D02*
Y545333D01*
X872333Y544000D01*
X874999D01*
X876332Y545333D01*
Y551997D01*
X878997Y550664D02*
X880330Y551997D01*
X882996D01*
X884329Y550664D01*
Y549332D01*
X882996Y547999D01*
X881663D01*
X882996D01*
X884329Y546666D01*
Y545333D01*
X882996Y544000D01*
X880330D01*
X878997Y545333D01*
X977800Y534840D02*
X976467Y533507D01*
Y530841D01*
X977800Y529508D01*
X983131D01*
X984464Y530841D01*
Y533507D01*
X983131Y534840D01*
X984464Y537505D02*
Y540171D01*
Y538838D01*
X976467D01*
X977800Y537505D01*
X984464Y544170D02*
Y546836D01*
Y545503D01*
X976467D01*
X977800Y544170D01*
X990753Y532300D02*
X989421Y530967D01*
Y528301D01*
X990753Y526968D01*
X996085D01*
X997418Y528301D01*
Y530967D01*
X996085Y532300D01*
X997418Y534965D02*
Y537631D01*
Y536298D01*
X989421D01*
X990753Y534965D01*
X997418Y546962D02*
Y541630D01*
X992086Y546962D01*
X990753D01*
X989421Y545629D01*
Y542963D01*
X990753Y541630D01*
X1004276Y553761D02*
Y545764D01*
X1009608D01*
X1012273D02*
X1014939D01*
X1013606D01*
Y553761D01*
X1012273Y552429D01*
X797000Y514997D02*
Y508333D01*
X798333Y507000D01*
X800999D01*
X802332Y508333D01*
Y514997D01*
X810329Y507000D02*
X804997D01*
X810329Y512332D01*
Y513665D01*
X808996Y514997D01*
X806330D01*
X804997Y513665D01*
X956972Y531792D02*
X955639Y530459D01*
Y527793D01*
X956972Y526460D01*
X962303D01*
X963636Y527793D01*
Y530459D01*
X962303Y531792D01*
X963636Y534457D02*
Y537123D01*
Y535790D01*
X955639D01*
X956972Y534457D01*
X963636Y545121D02*
X955639D01*
X959637Y541122D01*
Y546454D01*
D43*
X700002Y504000D02*
X705000D01*
Y506499D01*
X704167Y507332D01*
X703334D01*
X702501Y506499D01*
Y504000D01*
Y506499D01*
X701668Y507332D01*
X700835D01*
X700002Y506499D01*
Y504000D01*
Y508998D02*
X705000D01*
Y512331D01*
X700002Y517329D02*
Y513997D01*
X705000D01*
Y517329D01*
X702501Y513997D02*
Y515663D01*
X700002Y518995D02*
Y522327D01*
Y520661D01*
X705000D01*
Y526493D02*
Y524827D01*
X704167Y523993D01*
X702501D01*
X701668Y524827D01*
Y526493D01*
X702501Y527326D01*
X703334D01*
Y523993D01*
X705000Y528992D02*
X701668D01*
Y529825D01*
X702501Y530658D01*
X705000D01*
X702501D01*
X701668Y531491D01*
X702501Y532324D01*
X705000D01*
X706666Y533990D02*
X701668D01*
Y536489D01*
X702501Y537322D01*
X704167D01*
X705000Y536489D01*
Y533990D01*
X701668Y543987D02*
X705000Y545653D01*
X701668Y547319D01*
X705000Y548985D02*
Y550651D01*
Y549818D01*
X700002D01*
X700835Y548985D01*
X705000Y553151D02*
X704167D01*
Y553984D01*
X705000D01*
Y553151D01*
X700835Y557316D02*
X700002Y558149D01*
Y559815D01*
X700835Y560648D01*
X704167D01*
X705000Y559815D01*
Y558149D01*
X704167Y557316D01*
X700835D01*
X702501Y567313D02*
Y570645D01*
X701668Y577309D02*
X704167D01*
X705000Y578143D01*
X704167Y578975D01*
X705000Y579809D01*
X704167Y580642D01*
X701668D01*
Y582308D02*
X704167D01*
X705000Y583141D01*
X704167Y583974D01*
X705000Y584807D01*
X704167Y585640D01*
X701668D01*
Y587306D02*
X704167D01*
X705000Y588139D01*
X704167Y588972D01*
X705000Y589805D01*
X704167Y590638D01*
X701668D01*
X705000Y592304D02*
X704167D01*
Y593138D01*
X705000D01*
Y592304D01*
X701668Y596470D02*
X705000D01*
X703334D01*
X702501Y597303D01*
X701668Y598136D01*
Y598969D01*
X700835Y601468D02*
X700002Y602301D01*
Y603967D01*
X700835Y604800D01*
X704167D01*
X705000Y603967D01*
Y602301D01*
X704167Y601468D01*
X700835D01*
Y606466D02*
X700002Y607300D01*
Y608966D01*
X700835Y609799D01*
X704167D01*
X705000Y608966D01*
Y607300D01*
X704167Y606466D01*
X700835D01*
X705000Y611465D02*
Y613131D01*
Y612298D01*
X700002D01*
Y611465D01*
X705000Y615630D02*
Y617296D01*
Y616463D01*
X701668D01*
Y615630D01*
X705000Y619795D02*
X704167D01*
Y620629D01*
X705000D01*
Y619795D01*
X701668Y627293D02*
Y624794D01*
X702501Y623961D01*
X704167D01*
X705000Y624794D01*
Y627293D01*
Y629792D02*
Y631458D01*
X704167Y632291D01*
X702501D01*
X701668Y631458D01*
Y629792D01*
X702501Y628959D01*
X704167D01*
X705000Y629792D01*
Y633958D02*
X701668D01*
Y634791D01*
X702501Y635624D01*
X705000D01*
X702501D01*
X701668Y636457D01*
X702501Y637290D01*
X705000D01*
M02*
