G04 Layer_Physical_Order=1*
G04 Layer_Color=255*
%FSLAX44Y44*%
%MOMM*%
G71*
G01*
G75*
%ADD10R,1.8000X1.0000*%
%ADD11R,1.5000X0.6000*%
%ADD12R,1.3000X1.5000*%
%ADD13O,0.6500X0.2000*%
%ADD14O,0.2000X0.6500*%
%ADD15R,4.7000X4.7000*%
%ADD16R,0.6000X0.5000*%
%ADD17R,1.2000X0.4000*%
%ADD18O,1.2000X0.4000*%
%ADD19R,1.4000X2.5000*%
G04:AMPARAMS|DCode=20|XSize=0.5mm|YSize=0.6mm|CornerRadius=0.05mm|HoleSize=0mm|Usage=FLASHONLY|Rotation=0.000|XOffset=0mm|YOffset=0mm|HoleType=Round|Shape=RoundedRectangle|*
%AMROUNDEDRECTD20*
21,1,0.5000,0.5000,0,0,0.0*
21,1,0.4000,0.6000,0,0,0.0*
1,1,0.1000,0.2000,-0.2500*
1,1,0.1000,-0.2000,-0.2500*
1,1,0.1000,-0.2000,0.2500*
1,1,0.1000,0.2000,0.2500*
%
%ADD20ROUNDEDRECTD20*%
%ADD21R,0.9000X1.4500*%
G04:AMPARAMS|DCode=22|XSize=0.6mm|YSize=0.6mm|CornerRadius=0.06mm|HoleSize=0mm|Usage=FLASHONLY|Rotation=0.000|XOffset=0mm|YOffset=0mm|HoleType=Round|Shape=RoundedRectangle|*
%AMROUNDEDRECTD22*
21,1,0.6000,0.4800,0,0,0.0*
21,1,0.4800,0.6000,0,0,0.0*
1,1,0.1200,0.2400,-0.2400*
1,1,0.1200,-0.2400,-0.2400*
1,1,0.1200,-0.2400,0.2400*
1,1,0.1200,0.2400,0.2400*
%
%ADD22ROUNDEDRECTD22*%
G04:AMPARAMS|DCode=23|XSize=0.5mm|YSize=0.6mm|CornerRadius=0.05mm|HoleSize=0mm|Usage=FLASHONLY|Rotation=270.000|XOffset=0mm|YOffset=0mm|HoleType=Round|Shape=RoundedRectangle|*
%AMROUNDEDRECTD23*
21,1,0.5000,0.5000,0,0,270.0*
21,1,0.4000,0.6000,0,0,270.0*
1,1,0.1000,-0.2500,-0.2000*
1,1,0.1000,-0.2500,0.2000*
1,1,0.1000,0.2500,0.2000*
1,1,0.1000,0.2500,-0.2000*
%
%ADD23ROUNDEDRECTD23*%
G04:AMPARAMS|DCode=24|XSize=0.6mm|YSize=0.6mm|CornerRadius=0.06mm|HoleSize=0mm|Usage=FLASHONLY|Rotation=270.000|XOffset=0mm|YOffset=0mm|HoleType=Round|Shape=RoundedRectangle|*
%AMROUNDEDRECTD24*
21,1,0.6000,0.4800,0,0,270.0*
21,1,0.4800,0.6000,0,0,270.0*
1,1,0.1200,-0.2400,-0.2400*
1,1,0.1200,-0.2400,0.2400*
1,1,0.1200,0.2400,0.2400*
1,1,0.1200,0.2400,-0.2400*
%
%ADD24ROUNDEDRECTD24*%
%ADD25R,0.5000X0.6000*%
%ADD26C,0.2040*%
%ADD27C,0.2032*%
%ADD28C,0.2000*%
%ADD29C,0.2540*%
%ADD30C,0.5000*%
%ADD31C,0.9100*%
%ADD32C,0.9000*%
%ADD33C,2.0000*%
%ADD34C,1.7500*%
%ADD35C,0.6600*%
%ADD36C,1.0000*%
G36*
X947454Y641230D02*
X946670Y640446D01*
Y633602D01*
X935066D01*
X933926Y633376D01*
X932960Y632730D01*
X930952Y630722D01*
X926310D01*
X925978Y630788D01*
X924838Y630561D01*
X923872Y629916D01*
X920962Y627005D01*
X919268Y626903D01*
X916709Y629462D01*
X916771Y629556D01*
X916958Y630494D01*
Y634494D01*
X916771Y635432D01*
X916240Y636228D01*
X915444Y636759D01*
X914506Y636946D01*
X909554D01*
X909006Y637494D01*
X905006D01*
X903756Y636244D01*
Y628744D01*
X905006Y627494D01*
X909006D01*
X909006Y627494D01*
X909006Y627494D01*
X910235Y627513D01*
X912050Y625697D01*
X911910Y625391D01*
X911302Y624650D01*
X910416Y624826D01*
X909282Y624600D01*
X908416Y624021D01*
X907549Y624600D01*
X906416Y624826D01*
X905282Y624600D01*
X904416Y624021D01*
X903549Y624600D01*
X902416Y624826D01*
X901282Y624600D01*
X900416Y624021D01*
X899549Y624600D01*
X898416Y624826D01*
X898380Y624819D01*
X897398Y625624D01*
Y629584D01*
X897398Y629584D01*
X897171Y630726D01*
X896525Y631693D01*
X896525Y631693D01*
X887109Y641109D01*
X886927Y641230D01*
X887313Y642500D01*
X946928D01*
X947454Y641230D01*
D02*
G37*
G36*
X1032500Y618999D02*
X1029181D01*
X1029073Y619162D01*
X1026938Y620588D01*
X1024419Y621090D01*
X1021900Y620588D01*
X1019765Y619162D01*
X1017148Y616545D01*
X1015722Y614410D01*
X1015220Y611891D01*
X1015220Y611891D01*
Y600814D01*
X997740Y583334D01*
X990480D01*
X987961Y582832D01*
X986395Y581786D01*
X985385Y581157D01*
Y581157D01*
X983806D01*
Y583063D01*
X984266Y583155D01*
X985062Y583686D01*
X985593Y584482D01*
X985780Y585420D01*
Y589420D01*
X985593Y590358D01*
X985062Y591154D01*
X984266Y591685D01*
X983328Y591872D01*
X978376D01*
X977828Y592420D01*
X973828D01*
X973280Y591872D01*
X968328D01*
X967390Y591685D01*
X966594Y591154D01*
X966181Y590535D01*
X965459Y590562D01*
X964911Y590746D01*
Y591851D01*
X956101D01*
X956101Y591851D01*
Y591851D01*
X956101Y591851D01*
X954930Y592091D01*
Y592246D01*
X954704Y593386D01*
X954058Y594352D01*
X950940Y597470D01*
X949974Y598116D01*
X948834Y598342D01*
X934666D01*
X934584Y598326D01*
X932416D01*
X931886Y598761D01*
Y603967D01*
X932416Y604402D01*
X934584D01*
X934666Y604386D01*
X934748Y604402D01*
X936916D01*
X938049Y604627D01*
X939010Y605270D01*
X939459Y605942D01*
X940606Y606025D01*
X940885Y605965D01*
X941852Y604998D01*
X949352D01*
X950602Y606248D01*
Y610248D01*
X950310Y610540D01*
X950351Y610959D01*
X951529Y612137D01*
X952796Y612054D01*
X952869Y611959D01*
X954312Y610853D01*
X955991Y610157D01*
X957794Y609919D01*
X959597Y610157D01*
X961276Y610853D01*
X962719Y611959D01*
X963826Y613402D01*
X964521Y615081D01*
X964708Y616499D01*
X965555Y617275D01*
X965962Y617476D01*
X966242Y617420D01*
X981936D01*
X982765Y616591D01*
Y599743D01*
X999575D01*
Y607797D01*
X1004552Y612774D01*
X1007292D01*
X1008230Y612961D01*
X1009026Y613492D01*
X1009557Y614288D01*
X1009744Y615226D01*
Y620178D01*
X1010292Y620726D01*
Y624726D01*
X1009042Y625976D01*
X1001542D01*
X1000292Y624726D01*
Y620726D01*
X1000840Y620178D01*
Y618565D01*
X999575Y618553D01*
X999575Y618553D01*
X999575Y618553D01*
X989227D01*
X985276Y622504D01*
X984309Y623149D01*
X983170Y623376D01*
X982473D01*
X981574Y624274D01*
Y641553D01*
X982354Y642500D01*
X1032500D01*
Y618999D01*
D02*
G37*
G36*
X868962Y579404D02*
X868954Y579364D01*
X869179Y578231D01*
X869758Y577364D01*
X869179Y576497D01*
X868954Y575364D01*
X869179Y574231D01*
X869758Y573364D01*
X869179Y572497D01*
X868954Y571364D01*
X868965Y571308D01*
X868159Y570326D01*
X863860D01*
X863196Y570769D01*
X862258Y570956D01*
X858258D01*
X857320Y570769D01*
X857158Y570662D01*
X855798Y571264D01*
X855727Y571803D01*
X855032Y573482D01*
X853925Y574925D01*
X852482Y576031D01*
X850803Y576727D01*
X849000Y576965D01*
X847197Y576727D01*
X846408Y576400D01*
X845689Y577477D01*
X848598Y580386D01*
X868156D01*
X868962Y579404D01*
D02*
G37*
G36*
X1032500Y495000D02*
X946871D01*
X946385Y496173D01*
X949823Y499611D01*
X952218Y498619D01*
X955000Y498253D01*
X957782Y498619D01*
X960374Y499693D01*
X962599Y501401D01*
X964307Y503627D01*
X965381Y506218D01*
X965747Y509000D01*
X965381Y511782D01*
X964307Y514374D01*
X962599Y516599D01*
X960374Y518307D01*
X957782Y519381D01*
X955000Y519747D01*
X952218Y519381D01*
X949626Y518307D01*
X947401Y516599D01*
X945693Y514374D01*
X944619Y511782D01*
X944253Y509000D01*
X944619Y506218D01*
X945611Y503823D01*
X941766Y499978D01*
X937321D01*
X936913Y501181D01*
X937199Y501401D01*
X938907Y503627D01*
X939981Y506218D01*
X940347Y509000D01*
X939981Y511782D01*
X938907Y514374D01*
X937199Y516599D01*
X934974Y518307D01*
X932382Y519381D01*
X929600Y519747D01*
X927252Y519438D01*
X925982Y520253D01*
Y541765D01*
X928524Y544307D01*
X928524Y544307D01*
X929171Y545274D01*
X929398Y546416D01*
Y559114D01*
X929378Y559216D01*
Y561364D01*
X930124Y562274D01*
X931378D01*
X931886Y562782D01*
Y563968D01*
X932416Y564402D01*
X936916D01*
X938049Y564628D01*
X939010Y565270D01*
X939652Y566231D01*
X939877Y567364D01*
X939652Y568498D01*
X939073Y569364D01*
X939652Y570231D01*
X939877Y571364D01*
X939652Y572497D01*
X939073Y573364D01*
X939652Y574231D01*
X939877Y575364D01*
X939684Y576335D01*
X939728Y576628D01*
X939870Y576872D01*
X941459Y577079D01*
X943894Y574644D01*
Y570235D01*
X943138Y569730D01*
X942607Y568934D01*
X942420Y567996D01*
Y563044D01*
X941872Y562496D01*
Y558496D01*
X943122Y557246D01*
X950622D01*
X951872Y558496D01*
Y562496D01*
X951324Y563044D01*
Y567996D01*
X951305Y568091D01*
X952476Y568716D01*
X954304Y566888D01*
Y562994D01*
X953756Y562446D01*
Y558446D01*
X955006Y557196D01*
X962506D01*
X963756Y558446D01*
Y561348D01*
X965026Y562390D01*
X965101Y562375D01*
Y561041D01*
X973911D01*
Y570851D01*
X973911D01*
Y571041D01*
X973911D01*
Y580851D01*
X965104D01*
X964922Y581973D01*
X964911Y582042D01*
Y583968D01*
X966406D01*
X966594Y583686D01*
X967390Y583155D01*
X968328Y582968D01*
X973280D01*
X973828Y582420D01*
X975558D01*
X975575Y581157D01*
X975575Y581157D01*
X975575Y581157D01*
Y572347D01*
X977850D01*
Y571101D01*
X977462Y571023D01*
X976666Y570492D01*
X976134Y569696D01*
X975948Y568758D01*
Y563806D01*
X975400Y563258D01*
Y559258D01*
X976650Y558008D01*
X984150D01*
X985400Y559258D01*
Y563258D01*
X984852Y563806D01*
Y568758D01*
X984665Y569696D01*
X984134Y570492D01*
X983806Y570711D01*
Y572347D01*
X985385D01*
Y572347D01*
X986395Y571718D01*
X987502Y570979D01*
Y567862D01*
X987632Y567208D01*
Y563806D01*
X987084Y563258D01*
Y559258D01*
X988334Y558008D01*
X995834D01*
X997084Y559258D01*
Y563258D01*
X996536Y563806D01*
Y568758D01*
X996508Y568900D01*
X997444Y570171D01*
X1000466D01*
X1000466Y570171D01*
X1002985Y570672D01*
X1005120Y572098D01*
X1026456Y593434D01*
X1027883Y595569D01*
X1028383Y598088D01*
X1028383Y598088D01*
Y609165D01*
X1029073Y609854D01*
X1029181Y610017D01*
X1032500D01*
Y495000D01*
D02*
G37*
G36*
X848073Y641230D02*
X847891Y641109D01*
X847891Y641109D01*
X838891Y632109D01*
X838409Y631387D01*
X837392Y631092D01*
X836935Y631065D01*
X836750Y631250D01*
X829250D01*
X828000Y630000D01*
Y626000D01*
X827993Y625982D01*
X823235D01*
X822905Y626313D01*
Y638405D01*
X801095D01*
Y624595D01*
X816187D01*
X819891Y620891D01*
X819891Y620891D01*
X820859Y620245D01*
X822000Y620018D01*
X822000Y620018D01*
X828644D01*
X828735Y619562D01*
X829266Y618766D01*
X830062Y618235D01*
X831000Y618048D01*
X835000D01*
X835938Y618235D01*
X836734Y618766D01*
X837265Y619562D01*
X838000Y620018D01*
X839141Y620245D01*
X839412Y620426D01*
X840221Y619439D01*
X832735Y611952D01*
X831000D01*
X830062Y611765D01*
X829266Y611234D01*
X828735Y610438D01*
X828644Y609982D01*
X822905D01*
Y613405D01*
X801095D01*
Y599595D01*
X822905D01*
Y604018D01*
X827993D01*
X828000Y604000D01*
Y600000D01*
X829250Y598750D01*
X836750D01*
X838000Y600000D01*
Y604000D01*
X837452Y604548D01*
Y608234D01*
X850109Y620891D01*
X850109Y620891D01*
X850755Y621859D01*
X850982Y623000D01*
X850982Y623000D01*
Y629765D01*
X853195Y631978D01*
X881765D01*
X887018Y626724D01*
X886984Y625874D01*
X886416Y624826D01*
X885282Y624600D01*
X884416Y624021D01*
X883549Y624600D01*
X882416Y624826D01*
X881282Y624600D01*
X880321Y623958D01*
X879679Y622997D01*
X879454Y621864D01*
Y617364D01*
X879650Y616376D01*
X879571Y616074D01*
X878903Y615106D01*
X877276D01*
Y615106D01*
X876296Y614332D01*
X876006Y614340D01*
X875752Y614390D01*
X865012D01*
X864964Y614438D01*
Y617130D01*
X865478Y617644D01*
X865512Y617678D01*
Y621678D01*
X864262Y622928D01*
X856762D01*
X855512Y621678D01*
Y617678D01*
X856060Y617130D01*
Y616272D01*
X852307Y612519D01*
X851803Y612727D01*
X850000Y612965D01*
X848197Y612727D01*
X846518Y612032D01*
X845075Y610925D01*
X843969Y609482D01*
X843273Y607803D01*
X843035Y606000D01*
X843273Y604197D01*
X843969Y602518D01*
X845075Y601075D01*
X846518Y599968D01*
X848197Y599273D01*
X850000Y599035D01*
X851803Y599273D01*
X853482Y599968D01*
X854925Y601075D01*
X856031Y602518D01*
X856727Y604197D01*
X856965Y606000D01*
X856727Y607803D01*
X856518Y608307D01*
X858033Y609821D01*
X858512Y609726D01*
X861252D01*
X861672Y609306D01*
X862638Y608660D01*
X863778Y608434D01*
X868166D01*
X868971Y607452D01*
X868954Y607364D01*
X869179Y606231D01*
X869758Y605364D01*
X869179Y604497D01*
X868954Y603364D01*
X869179Y602230D01*
X869758Y601364D01*
X869179Y600498D01*
X868954Y599364D01*
X869179Y598231D01*
X869758Y597364D01*
X869179Y596497D01*
X868954Y595364D01*
X868961Y595328D01*
X868155Y594346D01*
X843791D01*
X842649Y594119D01*
X841682Y593473D01*
X841682Y593473D01*
X838132Y589923D01*
X827411D01*
X823951Y593384D01*
X822983Y594030D01*
X821842Y594257D01*
X821842Y594257D01*
X803275D01*
X803275Y594257D01*
X802134Y594030D01*
X801166Y593384D01*
X801166Y593384D01*
X798765Y590982D01*
X793007D01*
X793000Y591000D01*
Y595000D01*
X792862Y595138D01*
X792954Y595600D01*
Y600400D01*
X792760Y601377D01*
X792206Y602206D01*
X791377Y602760D01*
X790400Y602954D01*
X785600D01*
X784623Y602760D01*
X783794Y602206D01*
X783240Y601377D01*
X783162Y600982D01*
X778235D01*
X775982Y603235D01*
Y606845D01*
X779405D01*
Y625155D01*
X766595D01*
Y606845D01*
X770018D01*
Y602000D01*
X770018Y602000D01*
X770245Y600859D01*
X770891Y599891D01*
X774891Y595891D01*
X774891Y595891D01*
X775859Y595245D01*
X777000Y595018D01*
X782993D01*
X783000Y595000D01*
Y591000D01*
X783138Y590862D01*
X783046Y590400D01*
Y585600D01*
X783240Y584623D01*
X783794Y583794D01*
X784623Y583240D01*
X785600Y583046D01*
X790400D01*
X791377Y583240D01*
X792206Y583794D01*
X792760Y584623D01*
X792838Y585018D01*
X800000D01*
X800000Y585018D01*
X801141Y585245D01*
X802109Y585891D01*
X804510Y588293D01*
X812772D01*
X813203Y587023D01*
X813075Y586925D01*
X811969Y585482D01*
X811273Y583803D01*
X811035Y582000D01*
X811273Y580197D01*
X811969Y578518D01*
X813075Y577075D01*
X814153Y576248D01*
X813722Y574978D01*
X804240D01*
X804032Y575482D01*
X802925Y576925D01*
X801482Y578032D01*
X799803Y578727D01*
X798000Y578965D01*
X796197Y578727D01*
X794518Y578032D01*
X793075Y576925D01*
X791969Y575482D01*
X791273Y573803D01*
X791035Y572000D01*
X791273Y570197D01*
X791969Y568518D01*
X793075Y567075D01*
X794467Y566007D01*
X794479Y565880D01*
X794083Y564737D01*
X759905D01*
Y566405D01*
X741095D01*
Y556595D01*
X745763D01*
Y550341D01*
X733711Y538289D01*
X718211Y522789D01*
X717509Y521739D01*
X717263Y520500D01*
Y517545D01*
X714496Y516399D01*
X712009Y514491D01*
X710101Y512004D01*
X708901Y509108D01*
X708492Y506000D01*
X708901Y502892D01*
X710101Y499996D01*
X712009Y497509D01*
X713624Y496270D01*
X713193Y495000D01*
X705000D01*
Y642500D01*
X711411D01*
X711809Y641230D01*
X710101Y639004D01*
X708901Y636108D01*
X708492Y633000D01*
X708901Y629892D01*
X710101Y626996D01*
X712009Y624509D01*
X714496Y622601D01*
X717263Y621455D01*
Y609500D01*
X717509Y608261D01*
X718211Y607211D01*
X724763Y600659D01*
Y575905D01*
X718095D01*
Y566095D01*
X736905D01*
Y575905D01*
X731237D01*
Y602000D01*
X730991Y603239D01*
X730289Y604289D01*
X723737Y610841D01*
Y621455D01*
X726504Y622601D01*
X728991Y624509D01*
X730899Y626996D01*
X732099Y629892D01*
X732508Y633000D01*
X732099Y636108D01*
X730899Y639004D01*
X729191Y641230D01*
X729589Y642500D01*
X847687D01*
X848073Y641230D01*
D02*
G37*
G36*
X842600Y572592D02*
X842273Y571803D01*
X842035Y570000D01*
X842273Y568197D01*
X842960Y566538D01*
X841159Y564737D01*
X801917D01*
X801521Y565880D01*
X801533Y566007D01*
X802925Y567075D01*
X804032Y568518D01*
X804240Y569022D01*
X836000D01*
X837140Y569249D01*
X838106Y569894D01*
X841523Y573311D01*
X842600Y572592D01*
D02*
G37*
G36*
X877276Y563696D02*
Y562274D01*
X882707D01*
X883454Y561364D01*
Y556864D01*
X883679Y555731D01*
X884321Y554770D01*
X885282Y554128D01*
X886416Y553902D01*
X887549Y554128D01*
X888416Y554707D01*
X889282Y554128D01*
X890416Y553902D01*
X891549Y554128D01*
X892416Y554707D01*
X893282Y554128D01*
X894416Y553902D01*
X895549Y554128D01*
X896416Y554707D01*
X897282Y554128D01*
X898416Y553902D01*
X899549Y554128D01*
X900416Y554707D01*
X901282Y554128D01*
X902416Y553902D01*
X903549Y554128D01*
X904416Y554707D01*
X905282Y554128D01*
X906416Y553902D01*
X907549Y554128D01*
X908416Y554707D01*
X909282Y554128D01*
X910416Y553902D01*
X911549Y554128D01*
X912416Y554707D01*
X913282Y554128D01*
X914416Y553902D01*
X915247Y554067D01*
X915651Y553872D01*
X915956Y552584D01*
X915868Y552293D01*
X904966Y541391D01*
X904320Y540424D01*
X904093Y539283D01*
X904093Y539282D01*
Y535310D01*
X899765Y530982D01*
X887000D01*
X887000Y530982D01*
X885859Y530755D01*
X884891Y530109D01*
X884891Y530109D01*
X876891Y522109D01*
X876245Y521141D01*
X876018Y520000D01*
X876018Y520000D01*
Y519380D01*
X873427Y518307D01*
X871201Y516599D01*
X869493Y514374D01*
X868419Y511782D01*
X868053Y509000D01*
X868419Y506218D01*
X869493Y503627D01*
X871201Y501401D01*
X871487Y501181D01*
X871079Y499978D01*
X864234D01*
X860978Y503234D01*
Y518000D01*
X860751Y519140D01*
X860106Y520106D01*
X855954Y524258D01*
Y527400D01*
X855760Y528377D01*
X855206Y529206D01*
X854377Y529760D01*
X853978Y529839D01*
Y563026D01*
X855249D01*
X855258Y563004D01*
Y559004D01*
X856508Y557754D01*
X864008D01*
X865258Y559004D01*
Y563004D01*
X865130Y563132D01*
X865656Y564402D01*
X876416D01*
X877276Y563696D01*
D02*
G37*
G36*
X848022Y560784D02*
Y530009D01*
X848000Y530000D01*
X844000D01*
X843862Y529862D01*
X843400Y529954D01*
X838600D01*
X837623Y529760D01*
X836794Y529206D01*
X836240Y528377D01*
X836161Y527978D01*
X828292D01*
X827565Y529065D01*
X826274Y529928D01*
X824750Y530232D01*
X816750D01*
X815226Y529928D01*
X813935Y529065D01*
X813072Y527774D01*
X812768Y526250D01*
X813072Y524726D01*
X813935Y523435D01*
X815226Y522572D01*
X816750Y522268D01*
X822020D01*
Y514239D01*
X821516Y514030D01*
X820074Y512924D01*
X818967Y511481D01*
X818271Y509801D01*
X818034Y507999D01*
X818271Y506196D01*
X818967Y504517D01*
X820074Y503074D01*
X821516Y501968D01*
X823196Y501272D01*
X824998Y501034D01*
X826801Y501272D01*
X828481Y501968D01*
X829923Y503074D01*
X831030Y504517D01*
X831726Y506196D01*
X831963Y507999D01*
X831726Y509801D01*
X831030Y511481D01*
X829923Y512924D01*
X828481Y514030D01*
X827977Y514239D01*
Y522022D01*
X836161D01*
X836240Y521623D01*
X836794Y520794D01*
X837623Y520240D01*
X838600Y520046D01*
X843400D01*
X843862Y520138D01*
X844000Y520000D01*
X848000D01*
X848138Y520138D01*
X848600Y520046D01*
X851742D01*
X855022Y516766D01*
Y502000D01*
X855248Y500860D01*
X855894Y499894D01*
X859615Y496173D01*
X859129Y495000D01*
X727807D01*
X727376Y496270D01*
X728991Y497509D01*
X730899Y499996D01*
X732099Y502892D01*
X732508Y506000D01*
X732099Y509108D01*
X730899Y512004D01*
X728991Y514491D01*
X726504Y516399D01*
X723737Y517545D01*
Y519159D01*
X735500Y530922D01*
X754711Y511711D01*
X755761Y511009D01*
X757000Y510763D01*
X762212D01*
X762240Y510623D01*
X762794Y509794D01*
X763623Y509240D01*
X764600Y509046D01*
X769400D01*
X770377Y509240D01*
X771206Y509794D01*
X771760Y510623D01*
X771954Y511600D01*
Y516400D01*
X771862Y516862D01*
X772000Y517000D01*
Y520842D01*
X773140Y521248D01*
X773140Y521249D01*
X773140D01*
Y521249D01*
X774106Y521894D01*
X774114Y521902D01*
X775234Y523022D01*
X777595D01*
Y522345D01*
X782522D01*
Y516740D01*
X782018Y516531D01*
X780575Y515425D01*
X779469Y513982D01*
X778773Y512303D01*
X778535Y510500D01*
X778773Y508697D01*
X779469Y507018D01*
X780575Y505575D01*
X782018Y504468D01*
X783697Y503773D01*
X785500Y503535D01*
X787303Y503773D01*
X788982Y504468D01*
X790425Y505575D01*
X791532Y507018D01*
X792227Y508697D01*
X792465Y510500D01*
X792227Y512303D01*
X791532Y513982D01*
X790425Y515425D01*
X788982Y516531D01*
X788478Y516740D01*
Y522345D01*
X793405D01*
Y530155D01*
X777595D01*
Y528978D01*
X774000D01*
X772860Y528751D01*
X771894Y528106D01*
X771229Y528171D01*
X771206Y528206D01*
X770377Y528760D01*
X769400Y528954D01*
X764600D01*
X763623Y528760D01*
X762794Y528206D01*
X762240Y527377D01*
X762046Y526400D01*
Y521600D01*
X762138Y521138D01*
X762000Y521000D01*
Y517237D01*
X758341D01*
X740078Y535500D01*
X751289Y546711D01*
X751991Y547761D01*
X752237Y549000D01*
Y556595D01*
X757827D01*
X764763Y549659D01*
Y545000D01*
X761000D01*
X759750Y543750D01*
Y536250D01*
X761000Y535000D01*
X765000D01*
X765548Y535548D01*
X770500D01*
X770812Y535610D01*
X772711Y533711D01*
X773761Y533009D01*
X775000Y532763D01*
X777595D01*
Y532345D01*
X793405D01*
Y540155D01*
X777595D01*
Y539276D01*
X776325Y539253D01*
X773289Y542289D01*
X772834Y542593D01*
X772765Y542938D01*
X772234Y543734D01*
X771438Y544266D01*
X771237Y544305D01*
Y551000D01*
X770991Y552239D01*
X770289Y553289D01*
X766489Y557089D01*
X766975Y558263D01*
X842500D01*
X843739Y558509D01*
X844789Y559211D01*
X846848Y561270D01*
X848022Y560784D01*
D02*
G37*
G36*
X923433Y549764D02*
Y547651D01*
X920891Y545109D01*
X920245Y544141D01*
X920018Y543000D01*
X920018Y543000D01*
Y516000D01*
X920018Y516000D01*
X920245Y514859D01*
X920441Y514566D01*
X920293Y514374D01*
X919219Y511782D01*
X918853Y509000D01*
X919219Y506218D01*
X920293Y503627D01*
X922001Y501401D01*
X922287Y501181D01*
X921879Y499978D01*
X886521D01*
X886113Y501181D01*
X886399Y501401D01*
X888107Y503627D01*
X889181Y506218D01*
X889547Y509000D01*
X889181Y511782D01*
X888107Y514374D01*
X886399Y516599D01*
X884174Y518307D01*
X883356Y518646D01*
X883109Y519891D01*
X888235Y525018D01*
X901000D01*
X901000Y525018D01*
X902141Y525245D01*
X903109Y525891D01*
X909184Y531966D01*
X909184Y531966D01*
X909830Y532934D01*
X909868Y533123D01*
X910057Y534075D01*
X910057Y534075D01*
Y538047D01*
X922260Y550250D01*
X923433Y549764D01*
D02*
G37*
%LPC*%
G36*
X828905Y550155D02*
X813095D01*
Y542345D01*
X828905D01*
Y550155D01*
D02*
G37*
G36*
X793405D02*
X777595D01*
Y542345D01*
X793405D01*
Y550155D01*
D02*
G37*
%LPD*%
D10*
X812000Y631500D02*
D03*
Y606500D02*
D03*
D11*
X727500Y571000D02*
D03*
X750500Y580500D02*
D03*
Y561500D02*
D03*
D12*
X973169Y609148D02*
D03*
Y632148D02*
D03*
X991170Y609148D02*
D03*
Y632148D02*
D03*
D13*
X874166Y591364D02*
D03*
Y587364D02*
D03*
Y575364D02*
D03*
Y579364D02*
D03*
Y583364D02*
D03*
Y595364D02*
D03*
X934666Y611364D02*
D03*
Y603364D02*
D03*
Y607364D02*
D03*
Y595364D02*
D03*
Y599364D02*
D03*
Y587364D02*
D03*
Y591364D02*
D03*
Y583364D02*
D03*
Y579364D02*
D03*
Y575364D02*
D03*
Y567364D02*
D03*
Y571364D02*
D03*
X874166Y611364D02*
D03*
Y603364D02*
D03*
Y607364D02*
D03*
Y599364D02*
D03*
Y571364D02*
D03*
Y567364D02*
D03*
D14*
X926416Y619614D02*
D03*
X918416D02*
D03*
X914416D02*
D03*
X922416D02*
D03*
X902416D02*
D03*
X898416D02*
D03*
X910416D02*
D03*
X906416D02*
D03*
X926416Y559114D02*
D03*
X918416D02*
D03*
X914416D02*
D03*
X910416D02*
D03*
X922416D02*
D03*
X902416D02*
D03*
X906416D02*
D03*
X890416Y619614D02*
D03*
X886416D02*
D03*
X894416D02*
D03*
X882416D02*
D03*
X894416Y559114D02*
D03*
X890416D02*
D03*
X898416D02*
D03*
X882416D02*
D03*
X886416D02*
D03*
D15*
X904416Y589364D02*
D03*
D16*
X980480Y576752D02*
D03*
X990480D02*
D03*
D17*
X785500Y546250D02*
D03*
Y536250D02*
D03*
Y526250D02*
D03*
X821000Y546250D02*
D03*
X820750Y536250D02*
D03*
D18*
Y526250D02*
D03*
D19*
X803000Y536000D02*
D03*
D20*
X958756Y565446D02*
D03*
Y555446D02*
D03*
X833000Y623000D02*
D03*
Y633000D02*
D03*
Y607000D02*
D03*
Y597000D02*
D03*
X860258Y566004D02*
D03*
Y556004D02*
D03*
X946872Y565496D02*
D03*
Y555496D02*
D03*
X945602Y613248D02*
D03*
Y603248D02*
D03*
X860512Y614678D02*
D03*
Y624678D02*
D03*
X1005292Y617726D02*
D03*
Y627726D02*
D03*
X980400Y566258D02*
D03*
Y556258D02*
D03*
X992084Y566258D02*
D03*
Y556258D02*
D03*
D21*
X753000Y616000D02*
D03*
X773000D02*
D03*
D22*
X788000Y598000D02*
D03*
Y588000D02*
D03*
X767000Y524000D02*
D03*
Y514000D02*
D03*
D23*
X768000Y540000D02*
D03*
X758000D02*
D03*
X970828Y587420D02*
D03*
X980828D02*
D03*
X902006Y632494D02*
D03*
X912006D02*
D03*
X954920Y636696D02*
D03*
X944920D02*
D03*
D24*
X841000Y525000D02*
D03*
X851000D02*
D03*
D25*
X969506Y575946D02*
D03*
Y565946D02*
D03*
X960506Y586946D02*
D03*
Y576946D02*
D03*
D26*
X800000Y588000D02*
X803275Y591275D01*
X790000Y588000D02*
X800000D01*
X789000Y589000D02*
X790000Y588000D01*
X803275Y591275D02*
X821842D01*
X826176Y586941D01*
X839368D01*
X843791Y591364D01*
X874166D01*
X773000Y616000D02*
Y617000D01*
Y602000D02*
Y616000D01*
Y602000D02*
X777000Y598000D01*
X788000D01*
X923000Y516000D02*
X930000Y509000D01*
X923000Y516000D02*
Y543000D01*
X879000Y509000D02*
Y520000D01*
X887000Y528000D01*
X923000Y543000D02*
X926416Y546416D01*
X907075Y539283D02*
X922416Y554623D01*
X887000Y528000D02*
X901000D01*
X907075Y534075D01*
Y539283D01*
X851960Y634960D02*
X883000D01*
X851960D02*
X852000Y635000D01*
X848000Y631000D02*
X851960Y634960D01*
X848000Y623000D02*
Y631000D01*
X833000Y608000D02*
X848000Y623000D01*
X894416Y619614D02*
Y629584D01*
X885000Y639000D02*
X894416Y629584D01*
X850000Y639000D02*
X885000D01*
X841000Y630000D02*
X850000Y639000D01*
X841000Y626000D02*
Y630000D01*
X838000Y623000D02*
X841000Y626000D01*
X833000Y623000D02*
X838000D01*
X890416Y619614D02*
Y627544D01*
X883000Y634960D02*
X890416Y627544D01*
X822000Y623000D02*
X833000D01*
X814000Y631000D02*
X822000Y623000D01*
X814000Y607000D02*
X833000D01*
X814000Y607000D02*
X814000Y607000D01*
D27*
X845364Y587364D02*
X874166D01*
X841000Y583000D02*
X845364Y587364D01*
X819000Y583000D02*
X841000D01*
X847364Y583364D02*
X874166D01*
X836000Y572000D02*
X847364Y583364D01*
X798000Y572000D02*
X836000D01*
X851000Y525000D02*
X858000Y518000D01*
Y502000D02*
Y518000D01*
Y502000D02*
X863000Y497000D01*
X943000D01*
X955000Y509000D01*
X925078Y637000D02*
X945000D01*
X924774Y636696D02*
X925078Y637000D01*
X951952Y588944D02*
Y592246D01*
X960218Y586658D02*
X960506Y586946D01*
X954238Y586658D02*
X960218D01*
X951952Y588944D02*
X954238Y586658D01*
X934666Y595364D02*
X948834D01*
X951952Y592246D01*
X927000Y635792D02*
X927620Y635172D01*
X996714Y609148D02*
X1005292Y617726D01*
X991170Y609148D02*
X996714D01*
X954238Y571166D02*
X958756Y566648D01*
X954238Y571166D02*
Y574214D01*
X941088Y587364D02*
X954238Y574214D01*
X958108Y576946D02*
X960506D01*
X943690Y591364D02*
X958108Y576946D01*
X970146Y635172D02*
X973169Y632148D01*
X960506Y576946D02*
X968506D01*
X993904Y604164D02*
X994810Y603258D01*
X912006Y629953D02*
Y631744D01*
Y629953D02*
X918384Y623575D01*
X918416Y619614D02*
Y623575D01*
X911760Y632494D02*
X912006D01*
X912006Y632744D02*
X912506Y632244D01*
X991170Y609148D02*
Y612398D01*
X983170Y620398D02*
X991170Y612398D01*
X958756Y565446D02*
Y566648D01*
X970506Y586946D02*
X970756Y587196D01*
X960506Y586946D02*
X970506D01*
X968506Y576946D02*
X969506Y575946D01*
X959256Y565946D02*
X969506D01*
X958756Y565446D02*
X959256Y565946D01*
X954920Y635172D02*
Y636696D01*
X980400Y566512D02*
X980480Y566592D01*
X990480Y567862D02*
Y576752D01*
Y567862D02*
X992084Y566258D01*
X941734Y599380D02*
X945602Y603248D01*
X934666Y583364D02*
X939386D01*
X946872Y575878D01*
Y565750D02*
Y575878D01*
X922416Y619614D02*
Y624248D01*
X926416Y619614D02*
X931290D01*
X938236Y626560D01*
X934666Y611364D02*
X936550Y613248D01*
X945602D01*
X934666Y607364D02*
Y611364D01*
Y599364D02*
Y599380D01*
Y603364D01*
X904416Y589364D02*
X904542D01*
X948848Y630624D02*
X954920Y636696D01*
X935066Y630624D02*
X948848D01*
X926044Y627744D02*
X932186D01*
X954920Y635172D02*
X966336D01*
X932186Y627744D02*
X935066Y630624D01*
X922416Y624248D02*
X925978Y627810D01*
X960080Y626560D02*
X966242Y620398D01*
X983170D01*
X938236Y626560D02*
X960080D01*
X980828Y567528D02*
Y587420D01*
X980480Y566592D02*
Y567180D01*
X980400Y567100D02*
X980480Y567180D01*
X980828Y567528D01*
X860512Y614678D02*
X863778Y611412D01*
X875752D01*
X882416Y568684D02*
X882610Y568878D01*
X882416Y567364D02*
Y568684D01*
X922546Y603364D02*
X934666D01*
X922234Y603676D02*
X922546Y603364D01*
X922482Y599364D02*
X934666D01*
X922234Y599612D02*
X922482Y599364D01*
X934666Y599380D02*
X941734D01*
X932902Y587420D02*
X932958Y587364D01*
X934666D01*
X941088D01*
X934666Y591364D02*
X943690D01*
X876260Y617520D02*
Y617733D01*
Y617520D02*
X886416Y607364D01*
X767000Y524000D02*
X772000D01*
X774000Y526000D01*
X785000D01*
X858678Y614678D02*
X860512D01*
X850000Y606000D02*
X858678Y614678D01*
X852996Y566004D02*
X860258D01*
X851000Y525000D02*
Y568000D01*
X849000Y570000D02*
X851000Y568000D01*
X852996Y566004D01*
X785500Y510500D02*
Y526250D01*
X824998Y507999D02*
Y524002D01*
X822000Y527000D02*
X824000Y525000D01*
X824998Y524002D01*
X824000Y525000D02*
X841000D01*
X818000Y582000D02*
X819000Y583000D01*
D28*
X926416Y546416D02*
Y559114D01*
X922416Y554623D02*
Y559114D01*
X860776Y567364D02*
X874166D01*
D29*
X728000Y571000D02*
Y602000D01*
X720500Y609500D02*
X728000Y602000D01*
X720500Y609500D02*
Y633000D01*
Y506000D02*
Y520500D01*
X945602Y613248D02*
X948062D01*
X951698Y616884D01*
X957794D01*
X886416Y571364D02*
X898416Y583364D01*
X882416Y567364D02*
X883270Y568218D01*
X768000Y540000D02*
Y551000D01*
X757500Y561500D02*
X768000Y551000D01*
Y540000D02*
X771000D01*
X775000Y536000D01*
X786000D01*
X757000Y514000D02*
X767000D01*
X736000Y535000D02*
X757000Y514000D01*
X736000Y535000D02*
Y536000D01*
X720500Y520500D02*
X736000Y536000D01*
X749000Y549000D01*
X750500Y561500D02*
X757500D01*
X749000Y549000D02*
Y561500D01*
X849000Y568000D02*
Y570000D01*
X842500Y561500D02*
X849000Y568000D01*
X757500Y561500D02*
X842500D01*
D30*
X1024419Y614508D02*
X1079522D01*
X1040040Y498648D02*
X1079522D01*
X1079522Y592648D02*
Y614508D01*
Y637398D01*
X1053022Y592648D02*
X1079522D01*
X1053022Y567648D02*
Y592648D01*
Y567648D02*
X1079522D01*
Y545648D02*
Y567648D01*
X1053022Y545648D02*
X1079522D01*
X1053022Y520648D02*
Y545648D01*
Y520648D02*
X1079522D01*
X1079522Y498648D02*
Y520648D01*
D31*
X1021802Y611891D02*
X1024419Y614508D01*
X1021802Y598088D02*
Y611891D01*
X990480Y576752D02*
X1000466D01*
X1021802Y598088D01*
D32*
X1030772Y635398D02*
X1077522D01*
D33*
X720500Y506000D02*
D03*
Y633000D02*
D03*
D34*
X955000Y509000D02*
D03*
X929600D02*
D03*
X878800D02*
D03*
X904200D02*
D03*
D35*
X922416Y595364D02*
D03*
Y607364D02*
D03*
X910416D02*
D03*
Y595364D02*
D03*
X922416Y583364D02*
D03*
Y571364D02*
D03*
X910416Y583364D02*
D03*
Y571364D02*
D03*
X898416Y607364D02*
D03*
X886416D02*
D03*
X898416Y595364D02*
D03*
X886416D02*
D03*
X898416Y571364D02*
D03*
Y583364D02*
D03*
X886416Y571364D02*
D03*
Y583364D02*
D03*
D36*
X717500Y542500D02*
D03*
Y590000D02*
D03*
X804000Y498000D02*
D03*
X848000Y505000D02*
D03*
X877000Y536000D02*
D03*
X915000D02*
D03*
X933000Y537000D02*
D03*
X840000Y550000D02*
D03*
X924774Y636696D02*
D03*
X763000Y633000D02*
D03*
X969478Y553892D02*
D03*
X780000Y633000D02*
D03*
X957794Y616884D02*
D03*
X895000Y536000D02*
D03*
X1006562Y605708D02*
D03*
X1008848Y563290D02*
D03*
X736000Y518000D02*
D03*
X749000Y599000D02*
D03*
X1025866Y580308D02*
D03*
Y566846D02*
D03*
Y553638D02*
D03*
Y539922D02*
D03*
Y525698D02*
D03*
X1010372Y525190D02*
D03*
X990000Y502000D02*
D03*
X1026120Y635934D02*
D03*
X1016976Y626282D02*
D03*
X957794Y603930D02*
D03*
X1025000Y507500D02*
D03*
X1005000D02*
D03*
X775000Y576000D02*
D03*
X849000Y570000D02*
D03*
X850000Y606000D02*
D03*
X785500Y510500D02*
D03*
X824998Y507999D02*
D03*
X798000Y572000D02*
D03*
X818000Y582000D02*
D03*
M02*
