G04 Layer_Physical_Order=2*
G04 Layer_Color=16711680*
%FSLAX44Y44*%
%MOMM*%
G71*
G01*
G75*
%ADD27C,0.2032*%
%ADD29C,0.2540*%
%ADD33C,2.0000*%
%ADD34C,1.7500*%
%ADD35C,0.6600*%
%ADD36C,1.0000*%
%ADD37R,5.7000X5.6000*%
G36*
X1032978Y493948D02*
X725832D01*
X725579Y495218D01*
X726504Y495601D01*
X728991Y497509D01*
X730899Y499996D01*
X732099Y502892D01*
X732508Y506000D01*
X732099Y509108D01*
X730899Y512004D01*
X728991Y514491D01*
X726504Y516399D01*
X723608Y517599D01*
X720500Y518008D01*
X717392Y517599D01*
X714496Y516399D01*
X712009Y514491D01*
X710101Y512004D01*
X708901Y509108D01*
X708492Y506000D01*
X708901Y502892D01*
X710101Y499996D01*
X712009Y497509D01*
X714496Y495601D01*
X715421Y495218D01*
X715168Y493948D01*
X704048D01*
Y643144D01*
X712188D01*
X712597Y641941D01*
X712009Y641491D01*
X710101Y639004D01*
X708901Y636108D01*
X708492Y633000D01*
X708901Y629892D01*
X710101Y626996D01*
X712009Y624509D01*
X714496Y622601D01*
X717392Y621401D01*
X720500Y620992D01*
X723608Y621401D01*
X726504Y622601D01*
X728991Y624509D01*
X730899Y626996D01*
X732099Y629892D01*
X732508Y633000D01*
X732099Y636108D01*
X730899Y639004D01*
X728991Y641491D01*
X728403Y641941D01*
X728812Y643144D01*
X1032978D01*
Y493948D01*
D02*
G37*
%LPC*%
G36*
X947934Y629981D02*
X872256D01*
X871017Y629735D01*
X869967Y629033D01*
X853117Y612183D01*
X851803Y612727D01*
X850000Y612965D01*
X848197Y612727D01*
X846518Y612032D01*
X845075Y610925D01*
X843969Y609482D01*
X843273Y607803D01*
X843035Y606000D01*
X843273Y604197D01*
X843969Y602518D01*
X845075Y601075D01*
X845763Y600548D01*
Y576133D01*
X845518Y576031D01*
X844075Y574925D01*
X842969Y573482D01*
X842273Y571803D01*
X842035Y570000D01*
X842273Y568197D01*
X842969Y566518D01*
X844075Y565075D01*
X845518Y563969D01*
X847197Y563273D01*
X849000Y563035D01*
X850803Y563273D01*
X852482Y563969D01*
X853925Y565075D01*
X855032Y566518D01*
X855727Y568197D01*
X855965Y570000D01*
X855727Y571803D01*
X855032Y573482D01*
X853925Y574925D01*
X852482Y576031D01*
X852237Y576133D01*
Y599453D01*
X853482Y599968D01*
X854925Y601075D01*
X856031Y602518D01*
X856727Y604197D01*
X856965Y606000D01*
X856863Y606773D01*
X873597Y623507D01*
X946593D01*
X951168Y618932D01*
X951067Y618687D01*
X950829Y616884D01*
X951067Y615081D01*
X951762Y613402D01*
X952869Y611959D01*
X954312Y610853D01*
X955991Y610157D01*
X957794Y609919D01*
X959597Y610157D01*
X961276Y610853D01*
X962719Y611959D01*
X963826Y613402D01*
X964521Y615081D01*
X964759Y616884D01*
X964521Y618687D01*
X963826Y620366D01*
X962719Y621809D01*
X961276Y622915D01*
X959597Y623611D01*
X957794Y623849D01*
X955991Y623611D01*
X955746Y623510D01*
X950223Y629033D01*
X949173Y629735D01*
X947934Y629981D01*
D02*
G37*
G36*
X818000Y588965D02*
X816197Y588727D01*
X814518Y588032D01*
X813075Y586925D01*
X811969Y585482D01*
X811273Y583803D01*
X811035Y582000D01*
X811273Y580197D01*
X811969Y578518D01*
X813075Y577075D01*
X814518Y575969D01*
X816197Y575273D01*
X818000Y575035D01*
X819803Y575273D01*
X821482Y575969D01*
X822239Y576549D01*
X826022Y572766D01*
Y515792D01*
X825067Y514954D01*
X824998Y514964D01*
X823196Y514726D01*
X821516Y514030D01*
X820074Y512924D01*
X818967Y511481D01*
X818271Y509801D01*
X818034Y507999D01*
X818271Y506196D01*
X818967Y504517D01*
X820074Y503074D01*
X821516Y501968D01*
X823196Y501272D01*
X824998Y501034D01*
X826801Y501272D01*
X828481Y501968D01*
X829923Y503074D01*
X831030Y504517D01*
X831726Y506196D01*
X831933Y507775D01*
X831978Y508000D01*
Y574000D01*
X831751Y575140D01*
X831106Y576106D01*
X824927Y582285D01*
X824727Y583803D01*
X824032Y585482D01*
X822925Y586925D01*
X821482Y588032D01*
X819803Y588727D01*
X818000Y588965D01*
D02*
G37*
G36*
X798000Y578965D02*
X796197Y578727D01*
X794518Y578032D01*
X793075Y576925D01*
X791969Y575482D01*
X791273Y573803D01*
X791035Y572000D01*
X791273Y570197D01*
X791969Y568518D01*
X793075Y567075D01*
X794518Y565969D01*
X795022Y565760D01*
Y552234D01*
X783894Y541106D01*
X783249Y540140D01*
X783022Y539000D01*
Y516947D01*
X782018Y516531D01*
X780575Y515425D01*
X779469Y513982D01*
X778773Y512303D01*
X778535Y510500D01*
X778773Y508697D01*
X779469Y507018D01*
X780575Y505575D01*
X782018Y504468D01*
X783697Y503773D01*
X785500Y503535D01*
X787303Y503773D01*
X788982Y504468D01*
X790425Y505575D01*
X791532Y507018D01*
X792227Y508697D01*
X792465Y510500D01*
X792227Y512303D01*
X791532Y513982D01*
X790425Y515425D01*
X788982Y516531D01*
X788978Y516533D01*
Y537766D01*
X800106Y548894D01*
X800751Y549860D01*
X800978Y551000D01*
Y565760D01*
X801482Y565969D01*
X802925Y567075D01*
X804032Y568518D01*
X804727Y570197D01*
X804965Y572000D01*
X804727Y573803D01*
X804032Y575482D01*
X802925Y576925D01*
X801482Y578032D01*
X799803Y578727D01*
X798000Y578965D01*
D02*
G37*
G36*
X955000Y519747D02*
X952218Y519381D01*
X949626Y518307D01*
X947401Y516599D01*
X945693Y514374D01*
X944619Y511782D01*
X944253Y509000D01*
X944619Y506218D01*
X945693Y503627D01*
X947401Y501401D01*
X949626Y499693D01*
X952218Y498619D01*
X955000Y498253D01*
X957782Y498619D01*
X960374Y499693D01*
X962599Y501401D01*
X964307Y503627D01*
X965381Y506218D01*
X965747Y509000D01*
X965381Y511782D01*
X964307Y514374D01*
X962599Y516599D01*
X960374Y518307D01*
X957782Y519381D01*
X955000Y519747D01*
D02*
G37*
G36*
X929600D02*
X926818Y519381D01*
X924227Y518307D01*
X922001Y516599D01*
X920293Y514374D01*
X919219Y511782D01*
X918853Y509000D01*
X919219Y506218D01*
X920293Y503627D01*
X922001Y501401D01*
X924227Y499693D01*
X926818Y498619D01*
X929600Y498253D01*
X932382Y498619D01*
X934974Y499693D01*
X937199Y501401D01*
X938907Y503627D01*
X939981Y506218D01*
X940347Y509000D01*
X939981Y511782D01*
X938907Y514374D01*
X937199Y516599D01*
X934974Y518307D01*
X932382Y519381D01*
X929600Y519747D01*
D02*
G37*
G36*
X878800D02*
X876019Y519381D01*
X873427Y518307D01*
X871201Y516599D01*
X869493Y514374D01*
X868419Y511782D01*
X868053Y509000D01*
X868419Y506218D01*
X869493Y503627D01*
X871201Y501401D01*
X873427Y499693D01*
X876019Y498619D01*
X878800Y498253D01*
X881581Y498619D01*
X884174Y499693D01*
X886399Y501401D01*
X888107Y503627D01*
X889181Y506218D01*
X889547Y509000D01*
X889181Y511782D01*
X888107Y514374D01*
X886399Y516599D01*
X884174Y518307D01*
X881581Y519381D01*
X878800Y519747D01*
D02*
G37*
%LPD*%
D27*
X786000Y511000D02*
Y539000D01*
X829000Y508000D02*
Y574000D01*
X824999Y508000D02*
X829000D01*
X824998Y507999D02*
X824999Y508000D01*
X786000Y539000D02*
X798000Y551000D01*
Y572000D01*
X820000Y583000D02*
X829000Y574000D01*
X818000Y583000D02*
X820000D01*
D29*
X872256Y626744D02*
X947934D01*
X957794Y616884D01*
X849000Y570000D02*
Y603488D01*
X872256Y626744D01*
D33*
X720500Y506000D02*
D03*
Y633000D02*
D03*
D34*
X955000Y509000D02*
D03*
X929600D02*
D03*
X878800D02*
D03*
X904200D02*
D03*
D35*
X922416Y595364D02*
D03*
Y607364D02*
D03*
X910416D02*
D03*
Y595364D02*
D03*
X922416Y583364D02*
D03*
Y571364D02*
D03*
X910416Y583364D02*
D03*
Y571364D02*
D03*
X898416Y607364D02*
D03*
X886416D02*
D03*
X898416Y595364D02*
D03*
X886416D02*
D03*
X898416Y571364D02*
D03*
Y583364D02*
D03*
X886416Y571364D02*
D03*
Y583364D02*
D03*
D36*
X717500Y542500D02*
D03*
Y590000D02*
D03*
X804000Y498000D02*
D03*
X848000Y505000D02*
D03*
X877000Y536000D02*
D03*
X915000D02*
D03*
X933000Y537000D02*
D03*
X840000Y550000D02*
D03*
X924774Y636696D02*
D03*
X763000Y633000D02*
D03*
X969478Y553892D02*
D03*
X780000Y633000D02*
D03*
X957794Y616884D02*
D03*
X895000Y536000D02*
D03*
X1006562Y605708D02*
D03*
X1008848Y563290D02*
D03*
X736000Y518000D02*
D03*
X749000Y599000D02*
D03*
X1025866Y580308D02*
D03*
Y566846D02*
D03*
Y553638D02*
D03*
Y539922D02*
D03*
Y525698D02*
D03*
X1010372Y525190D02*
D03*
X990000Y502000D02*
D03*
X1026120Y635934D02*
D03*
X1016976Y626282D02*
D03*
X957794Y603930D02*
D03*
X1025000Y507500D02*
D03*
X1005000D02*
D03*
X775000Y576000D02*
D03*
X849000Y570000D02*
D03*
X850000Y606000D02*
D03*
X785500Y510500D02*
D03*
X824998Y507999D02*
D03*
X798000Y572000D02*
D03*
X818000Y582000D02*
D03*
D37*
X904506Y588744D02*
D03*
M02*
